<svg xmlns="http://www.w3.org/2000/svg" viewBox="0 0 32 32"><defs><style>.a{fill:none;stroke:#000;stroke-linecap:round;stroke-linejoin:round;stroke-width:0.25px;}</style></defs><title>Rain</title><path class="a" d="M11.31,23a.75.75,0,0,1-.67.82h0A.75.75,0,0,1,9.93,23c0-.46.68-1.14.69-1.14S11.31,22.5,11.31,23Z"/><path class="a" d="M14.69,23a.75.75,0,0,1-.67.82h0a.75.75,0,0,1-.67-.82c0-.46.68-1.14.68-1.14S14.69,22.5,14.69,23Z"/><path class="a" d="M18.68,23a.75.75,0,0,1-.67.82h0A.75.75,0,0,1,17.3,23c0-.46.69-1.14.69-1.14S18.68,22.5,18.68,23Z"/><path class="a" d="M22.33,23a.74.74,0,0,1-.66.82h0A.75.75,0,0,1,21,23c0-.46.68-1.14.69-1.14S22.33,22.5,22.33,23Z"/><path class="a" d="M20.61,26.67a.75.75,0,0,1-.66.82h0a.75.75,0,0,1-.67-.82c0-.46.68-1.14.69-1.14S20.61,26.21,20.61,26.67Z"/><path class="a" d="M16.8,26.67a.75.75,0,0,1-.67.82h0a.75.75,0,0,1-.67-.82c0-.46.68-1.14.69-1.14S16.8,26.21,16.8,26.67Z"/><path class="a" d="M12.75,26.67a.75.75,0,0,1-.67.82h0a.75.75,0,0,1-.67-.82c0-.46.68-1.14.68-1.14S12.75,26.21,12.75,26.67Z"/><path d="M23.48,10.6a7.49,7.49,0,0,0-14-2,6,6,0,0,0,.65,12h13a5,5,0,0,0,.35-10Z"/></svg>