<svg xmlns="http://www.w3.org/2000/svg" viewBox="0 0 32 32"><defs><style>.a{fill:none;stroke:#000;stroke-miterlimit:10;stroke-width:0.25px;}</style></defs><title>Partly-Cloudy</title><path d="M20.25,17.6a7.49,7.49,0,0,0-14-2,6,6,0,0,0,.65,12h13a5,5,0,0,0,.35-10Z"/><path class="a" d="M20.21,10.2a5,5,0,1,0,5,5,5,5,0,0,0-5-5Zm-10,6h2a1,1,0,0,0,0-2h-2a1,1,0,0,0,0,2Zm18,0h2a1,1,0,0,0,0-2h-2a1,1,0,0,0,0,2Zm-9-11v2a1,1,0,0,0,2,0v-2a1,1,0,1,0-2,0Zm0,18v2a1,1,0,0,0,2,0v-2a1,1,0,1,0-2,0Zm-5-15.42a1,1,0,1,0-1.41,1.41l1.06,1.06a1,1,0,0,0,1.41-1.41ZM26.57,20.15a1,1,0,0,0-1.41,1.41l1.06,1.06a1,1,0,0,0,1.41-1.41Zm1.06-11a1,1,0,0,0-1.41-1.41L25.16,8.84a1,1,0,0,0,1.41,1.41ZM15.26,21.56a1,1,0,1,0-1.41-1.41l-1.06,1.06a1,1,0,0,0,1.41,1.41Z"/></svg>