<svg xmlns="http://www.w3.org/2000/svg" viewBox="0 0 32 32"><defs><style>.a{fill:none;stroke:#000;stroke-linecap:round;stroke-linejoin:round;stroke-width:0.25px;}</style></defs><title>Thunder-Storm</title><path d="M23.35,10.6a7.49,7.49,0,0,0-14-2,6,6,0,0,0,.65,12H23a5,5,0,0,0,.35-10Z"/><path class="a" d="M13.55,29.67h-.46l.46-3.21H12c-.27,0-.27-.15-.18-.3s0,0,0-.06l2.67-4.69h.46l-.46,3.21h1.6c.23,0,.26.15.22.24l0,.07Z"/><path class="a" d="M18.37,27.76h-.32l.32-2.23H17.25c-.18,0-.18-.1-.12-.21s0,0,0,0c.41-.73,1-1.81,1.86-3.26h.31L19,24.25h1.11c.16,0,.18.11.15.16l0,.05C19,26.66,18.37,27.76,18.37,27.76Z"/></svg>